<svg width="800" height="800" xmlns="http://www.w3.org/2000/svg">
 <style type="text/css">
  <![CDATA[
	.st0{opacity:0.2;fill:#FFFFFF;}
	.st1{display:none;fill:#454C53;}
	.st2{fill:#FFFFFF;}
	.st3{fill:none;}
	.st4{display:inline;}
	.st5{fill:#64645d;}
	.st6{fill:#2f2f2c;}
	.st7{display:none;}
	.st8{opacity:0.51;fill:none;stroke:#FFFFFF;stroke-width:2.0741;stroke-miterlimit:10;}
	.st9{opacity:0.39;fill:#FFFFFF;}
	.st10{opacity:0.27;fill:#75B5AD;}
	.st11{fill:#454C53;}
]]>
 </style>

 <g>
  <title>background</title>
  <rect fill="none" id="canvas_background" height="802" width="802" y="-1" x="-1"/>
 </g>
 <g>
  <title>Layer 1</title>
  <g id="svg_3">
   <g id="svg_4">
    <ellipse id="svg_5" ry="253.6" rx="255.1" cy="336.8" cx="405.6" class="st8"/>
    <path id="svg_6" d="m385.1,95.5c-127.1,9.4 -229.9,127 -220,247.5c5.3,-59.4 29.6,-117.5 68.8,-162.2c39.2,-44.7 93.3,-72.5 151.2,-85.3z" class="st9"/>
    <ellipse id="svg_7" ry="253.6" rx="255.1" cy="336.8" cx="405.6" class="st0"/>
   </g>
   <path stroke="null" id="svg_11" d="m570.3,532.5c-2.4,25.42222 2.6,41.98518 10.9,62.39999l-347.2,-1.15556c1.1,0.19259 2,-1.92593 2.5,-3.65926c5.5,-18.87407 11.1,-31.2 9.1,-52.57777c0,0 164.5,41.21481 324.7,-5.00741z" class="st5"/>
   <g id="svg_13" class="st7">
    <g id="svg_14" class="st4">
     <g id="svg_15">
      <rect id="svg_16" height="90.6" width="33.8" class="st11" y="417.4" x="410.8"/>
      <rect id="svg_17" height="13" width="3" class="st2" y="445" x="426"/>
      <rect id="svg_18" height="13" width="3" class="st2" y="445" x="432"/>
      <rect id="svg_19" height="13" width="3" class="st2" y="445" x="438"/>
      <rect id="svg_20" height="12" width="4" class="st2" y="430" x="419"/>
      <rect id="svg_21" height="12" width="3" class="st2" y="430" x="426"/>
      <rect id="svg_22" height="12" width="3" class="st2" y="430" x="432"/>
      <rect id="svg_23" height="14" width="4" class="st2" y="460" x="419"/>
      <rect id="svg_24" height="14" width="3" class="st2" y="460" x="432"/>
      <rect id="svg_25" height="14" width="3" class="st2" y="460" x="438"/>
      <rect id="svg_26" height="14" width="4" class="st2" y="476" x="419"/>
      <rect id="svg_27" height="14" width="3" class="st2" y="476" x="426"/>
      <rect id="svg_28" height="14" width="3" class="st2" y="476" x="438"/>
     </g>
     <g id="svg_29">
      <rect id="svg_30" height="155.9" width="37.7" class="st11" y="352.1" x="367.8"/>
      <rect id="svg_31" height="9" width="5" class="st2" y="372" x="372"/>
      <rect id="svg_32" height="9" width="5" class="st2" y="372" x="380"/>
      <rect id="svg_33" height="6" width="5" class="st2" y="386" x="380"/>
      <rect id="svg_34" height="8" width="5" class="st2" y="397" x="372"/>
      <rect id="svg_35" height="8" width="5" class="st2" y="397" x="380"/>
      <rect id="svg_36" height="9" width="5" class="st2" y="408" x="372"/>
      <rect id="svg_37" height="9" width="5" class="st2" y="408" x="380"/>
      <rect id="svg_38" height="8" width="5" class="st2" y="419" x="380"/>
      <rect id="svg_39" height="10" width="5" class="st2" y="430" x="372"/>
      <rect id="svg_40" height="10" width="5" class="st2" y="430" x="380"/>
      <rect id="svg_41" height="8" width="5" class="st2" y="444" x="372"/>
      <rect id="svg_42" height="8" width="5" class="st2" y="444" x="380"/>
      <rect id="svg_43" height="8" width="5" class="st2" y="456" x="372"/>
      <rect id="svg_44" height="8" width="5" class="st2" y="456" x="380"/>
      <rect id="svg_45" height="10" width="5" class="st2" y="466" x="380"/>
      <rect id="svg_46" height="10" width="5" class="st2" y="479" x="372"/>
      <rect id="svg_47" height="10" width="5" class="st2" y="479" x="380"/>
      <rect id="svg_48" height="7" width="5" class="st2" y="492" x="380"/>
      <rect id="svg_49" height="9" width="4" class="st2" y="372" x="397"/>
      <rect id="svg_50" height="6" width="6" class="st2" y="386" x="387"/>
      <rect id="svg_51" height="6" width="4" class="st2" y="386" x="397"/>
      <rect id="svg_52" height="8" width="4" class="st2" y="397" x="397"/>
      <rect id="svg_53" height="9" width="6" class="st2" y="408" x="387"/>
      <rect id="svg_54" height="9" width="4" class="st2" y="408" x="397"/>
      <rect id="svg_55" height="8" width="6" class="st2" y="419" x="387"/>
      <rect id="svg_56" height="10" width="6" class="st2" y="430" x="387"/>
      <rect id="svg_57" height="10" width="4" class="st2" y="430" x="397"/>
      <rect id="svg_58" height="8" width="4" class="st2" y="444" x="397"/>
      <rect id="svg_59" height="8" width="6" class="st2" y="456" x="387"/>
      <rect id="svg_60" height="8" width="4" class="st2" y="456" x="397"/>
      <rect id="svg_61" height="10" width="6" class="st2" y="466" x="387"/>
      <rect id="svg_62" height="10" width="4" class="st2" y="466" x="397"/>
      <rect id="svg_63" height="10" width="4" class="st2" y="479" x="397"/>
      <rect id="svg_64" height="7" width="6" class="st2" y="492" x="387"/>
      <rect id="svg_65" height="7" width="4" class="st2" y="492" x="397"/>
     </g>
     <g id="svg_66">
      <rect id="svg_67" height="80" width="28" class="st11" y="428" x="490"/>
      <rect id="svg_68" height="3" width="23" class="st2" y="433" x="492"/>
      <rect id="svg_69" height="4" width="23" class="st2" y="440" x="492"/>
      <rect id="svg_70" height="2" width="23" class="st2" y="449" x="492"/>
      <rect id="svg_71" height="4" width="23" class="st2" y="455" x="492"/>
      <rect id="svg_72" height="3" width="23" class="st2" y="463" x="492"/>
      <rect id="svg_73" height="2" width="23" class="st2" y="472" x="492"/>
      <rect id="svg_74" height="2" width="23" class="st2" y="478" x="492"/>
      <rect id="svg_75" height="2" width="23" class="st2" y="487" x="492"/>
     </g>
     <g id="svg_76">
      <path id="svg_77" d="m290.2,474.7l3.5,-3.5l1.6,1.6l21.3,-20.8c-0.2,-0.5 -0.4,-1.1 -0.4,-1.1l-30.2,0l0,2l-4.7,0c0.1,1 0.2,2.3 0.4,3.4l4.8,-1.2l1.8,6.7l-4.8,1.3c0.4,1 0.8,2 1.3,3l4.3,-2.4l3.5,6l-4.3,2.5c0.5,0.8 1.2,1.7 1.9,2.5z" class="st3"/>
      <path id="svg_78" d="m298.6,423.2l-2,2l21.2,21.3c0.4,-0.3 1.2,-0.5 1.2,-0.6l0,-29.9l-2,0l0,-4.8c-1,0.1 -2.2,0.2 -3.3,0.4l1.2,4.4l-6.7,1.8l-1.2,-4.4c-1,0.4 -2.1,0.8 -3,1.2l2.3,3.9l-6,3.4l-2.3,-3.9c-0.9,0.6 -1.8,1.3 -2.6,2l3.2,3.2z" class="st3"/>
      <path id="svg_79" d="m281.8,443.3c-0.2,1.1 -0.4,1.7 -0.5,3.7l4.7,0l0,2l30.4,0c0.1,0 0.3,-0.9 0.5,-1.2l-21.5,-21.4l-1.8,1.7l-3.2,-3.2c-0.7,0.8 -1.4,1.7 -2,2.6l3.9,2.3l-3.5,6l-4,-2.3c-0.5,1 -0.9,2 -1.3,3l4.4,1.2l-1.8,6.8l-4.3,-1.2z" class="st3"/>
      <path id="svg_80" d="m317,488.6l0,-4.6l2,0l0,-30.1c0,-0.1 -1.2,-0.5 -1.7,-1l-21.1,21l2.3,2.2l-3.5,3.5c0.8,0.7 1.7,1.4 2.6,2l2.5,-4.2l6,3.4l-2.5,4.3c1,0.5 2,0.9 3,1.3l1.3,-4.7l6.7,1.8l-1.4,4.7c1.3,0.1 2.8,0.3 3.8,0.4z" class="st3"/>
      <path id="svg_81" d="m322.1,453.2c-0.5,0.3 -0.1,0.6 -2.1,0.7l0,30.1l4,0l0,4.5c1,-0.1 2.1,-0.3 3.2,-0.4l-1.2,-4.7l6.7,-1.8l1.3,4.6c1,-0.4 2.1,-0.8 3,-1.3l-2.4,-4.2l6,-3.4l2.4,4.1c0.9,-0.6 1.8,-1.3 2.6,-2l-3.4,-3.4l1.5,-1.8l-21.6,-21z" class="st3"/>
      <path id="svg_82" d="m324,411.3l0,4.7l-4,0l0,29.9c2,0.1 1.2,0.2 1.5,0.3l21.9,-21.5l-1.5,-1.6l3.2,-3.1c-0.8,-0.7 -1.7,-1.4 -2.6,-2l-2.2,3.9l-6,-3.4l2.2,-3.8c-1,-0.5 -2,-0.9 -3,-1.3l-1.2,4.3l-6.7,-1.8l1.1,-4.3c-0.8,-0.1 -1.7,-0.3 -2.7,-0.3z" class="st3"/>
      <path id="svg_83" d="m355,451l-30.7,0c0,0 -0.3,1 -0.6,1.5l21.3,20.9l2,-2.1l3.4,3.3c0.7,-0.8 1.4,-1.7 2,-2.6l-4.2,-2.4l3.5,-6l4.2,2.4c0.5,-1 0.9,-2 1.3,-3l-4.7,-1.3l1.8,-6.6l4.7,1.1c0.2,-1 0.3,-2.3 0.4,-3.3l-4.4,0l0,-1.9z" class="st3"/>
      <path id="svg_84" d="m350.1,424.9l-3.1,3.1l-2.2,-2.2l-21.5,21.5c0.4,0.4 0.6,1.6 0.8,1.6l30.9,0l0,-2l4.2,0c-0.1,-2 -0.3,-2.5 -0.4,-3.6l-4.3,1l-1.8,-6.7l4.3,-1.2c-0.4,-1 -0.8,-2.1 -1.3,-3l-3.9,2.2l-3.5,-6l3.9,-2.2c-0.7,-0.8 -1.4,-1.7 -2.1,-2.5z" class="st3"/>
      <path id="svg_85" d="m325,492.2c22,-2.6 37.9,-20.6 37.9,-42.3c0,-23.5 -19.1,-42.7 -42.8,-42.7c-23.7,0 -42.8,19.1 -42.8,42.7c0,21.7 15.7,39.7 37.7,42.3l0,6.8l-27,0l0,9l26.9,0l10.8,0l26.3,0l0,-9l-27,0l0,-6.8zm-17,-10.6l-1.3,4.7c-1,-0.4 -2,-0.8 -3,-1.3l2.5,-4.3l-6,-3.4l-2.5,4.2c-0.9,-0.6 -1.8,-1.3 -2.6,-2l3.5,-3.5l-2.2,-2.2l20.9,-21c0.5,0.5 1.7,0.8 1.7,1l0,30.2l-2,0l0,4.6c-1,-0.1 -2.5,-0.3 -3.7,-0.5l1.3,-4.7l-6.6,-1.8zm-19,-17.9l-4.3,2.4c-0.5,-1 -0.9,-2 -1.3,-3l4.8,-1.3l-1.8,-6.6l-4.8,1.2c-0.2,-1.1 -0.3,-2.4 -0.4,-3.4l4.7,0l0,-2l30.2,0c0,0 0.2,0.6 0.4,1.1l-21.3,21l-1.6,-1.7l-3.5,3.4c-0.7,-0.8 -1.4,-1.7 -2,-2.6l4.3,-2.5l-3.4,-6zm-5.4,-27.3c0.4,-1 0.8,-2 1.3,-3l4,2.3l3.5,-6l-3.9,-2.3c0.6,-0.9 1.3,-1.8 2,-2.6l3.2,3.2l1.8,-1.8l21.5,21.5c-0.2,0.3 -0.4,1.2 -0.5,1.2l-30.5,0l0,-2l-4.7,0c0.1,-2 0.3,-2.6 0.5,-3.7l4.4,1l1.8,-6.7l-4.4,-1.1zm16.7,-14.4l6,-3.4l-2.3,-3.9c1,-0.5 2,-0.9 3.1,-1.2l1.2,4.4l6.7,-1.8l-1.3,-4.4c1.1,-0.2 2.3,-0.3 3.3,-0.4l0,4.8l2,0l0,29.9c0,0.1 -0.8,0.3 -1.2,0.6l-21.4,-21.3l2.1,-2l-3.2,-3.2c0.8,-0.7 1.7,-1.4 2.6,-2l2.4,3.9zm32.1,-4.3l1.2,-4.3c1,0.4 2.1,0.8 3,1.3l-2.2,3.8l6,3.4l2.2,-3.9c0.9,0.6 1.8,1.3 2.6,2l-3.2,3.1l1.6,1.6l-22.2,21.5c-0.3,-0.2 0.5,-0.3 -1.5,-0.3l0,-29.9l4,0l0,-4.7c1,0.1 1.9,0.2 2.8,0.4l-1.1,4.3l6.8,1.7zm19.3,18l3.9,-2.2c0.5,1 0.9,2 1.3,3l-4.3,1.2l1.8,6.6l4.3,-0.8c0.2,1.1 0.3,1.6 0.4,3.6l-4.1,0l0,2l-30.9,0c-0.2,0 -0.5,-1.2 -0.8,-1.6l21.5,-21.5l2.2,2.1l3.2,-3.2c0.7,0.8 1.4,1.7 2,2.6l-3.9,2.2l3.4,6zm-6.2,43.8c-0.8,0.7 -1.7,1.4 -2.6,2l-2.4,-4.1l-6,3.4l2.4,4.2c-1,0.5 -2,0.9 -3,1.3l-1.2,-4.6l-6.7,1.8l1.2,4.7c-1,0.2 -2.2,0.3 -3.2,0.4l0,-4.6l-4,0l0,-30.1c2,-0.1 1.6,-0.3 2.1,-0.7l21.5,21.1l-1.7,1.8l3.6,3.4zm16.5,-26.5l-2.8,0c-0.1,1 -0.2,2.2 -0.4,3.3l-4.7,-1.2l-1.8,6.7l4.7,1.3c-0.4,1 -0.8,2 -1.3,3l-4.2,-2.4l-3.5,6l4.2,2.4c-0.6,0.9 -1.3,1.8 -2,2.6l-3.4,-3.4l-2,2l-21.3,-20.7c0.4,-0.6 0.6,-1.5 0.6,-1.5l30.9,0l0,2l4.2,0l2.8,0l0,-6.7l0,6.6z" class="st11"/>
     </g>
     <g id="svg_86">
      <rect id="svg_87" height="30" width="25" class="st11" y="478" x="258"/>
      <rect id="svg_88" height="7" width="3" class="st2" y="483" x="261"/>
      <rect id="svg_89" height="7" width="2" class="st2" y="483" x="272"/>
      <rect id="svg_90" height="7" width="3" class="st2" y="483" x="277"/>
      <rect id="svg_91" height="7" width="3" class="st2" y="492" x="261"/>
      <rect id="svg_92" height="7" width="3" class="st2" y="492" x="266"/>
      <rect id="svg_93" height="7" width="3" class="st2" y="492" x="277"/>
     </g>
     <g id="svg_94">
      <path id="svg_95" d="m251,415l0,-7l-6,0l0,7l-19,0l0,93l27,0l0,-93l-2,0zm-16,83l-7,0l0,-7l7,0l0,7zm0,-10l-7,0l0,-8l7,0l0,8zm0,-11l-7,0l0,-6l7,0l0,6zm0,-9l-7,0l0,-7l7,0l0,7zm0,-11l-7,0l0,-7l7,0l0,7zm0,-20l-7,0l0,-7l7,0l0,7zm0,-11l-7,0l0,-6l7,0l0,6zm8,72l-6,0l0,-7l6,0l0,7zm0,-10l-6,0l0,-8l6,0l0,8zm0,-20l-6,0l0,-7l6,0l0,7zm0,-11l-6,0l0,-7l6,0l0,7zm0,-10l-6,0l0,-8l6,0l0,8zm0,-10l-6,0l0,-7l6,0l0,7zm0,-11l-6,0l0,-6l6,0l0,6zm8,62l-6,0l0,-8l6,0l0,8zm0,-11l-6,0l0,-6l6,0l0,6zm0,-9l-6,0l0,-7l6,0l0,7zm0,-21l-6,0l0,-8l6,0l0,8zm0,-10l-6,0l0,-7l6,0l0,7z" class="st11"/>
      <rect id="svg_96" height="6" width="7" class="st2" y="420" x="228"/>
      <rect id="svg_97" height="6" width="6" class="st2" y="420" x="237"/>
      <rect id="svg_98" height="7" width="7" class="st2" y="430" x="228"/>
      <rect id="svg_99" height="7" width="6" class="st2" y="430" x="245"/>
      <rect id="svg_100" height="7" width="6" class="st2" y="430" x="237"/>
      <rect id="svg_101" height="8" width="6" class="st2" y="439" x="245"/>
      <rect id="svg_102" height="8" width="6" class="st2" y="439" x="237"/>
      <rect id="svg_103" height="7" width="7" class="st2" y="450" x="228"/>
      <rect id="svg_104" height="7" width="6" class="st2" y="450" x="237"/>
      <rect id="svg_105" height="7" width="7" class="st2" y="461" x="228"/>
      <rect id="svg_106" height="7" width="6" class="st2" y="461" x="245"/>
      <rect id="svg_107" height="7" width="6" class="st2" y="461" x="237"/>
      <rect id="svg_108" height="6" width="7" class="st2" y="471" x="228"/>
      <rect id="svg_109" height="6" width="6" class="st2" y="471" x="245"/>
      <rect id="svg_110" height="8" width="7" class="st2" y="480" x="228"/>
      <rect id="svg_111" height="8" width="6" class="st2" y="480" x="245"/>
      <rect id="svg_112" height="8" width="6" class="st2" y="480" x="237"/>
      <rect id="svg_113" height="7" width="7" class="st2" y="491" x="228"/>
      <rect id="svg_114" height="7" width="6" class="st2" y="491" x="237"/>
     </g>
     <g id="svg_115">
      <path id="svg_116" d="m480,388l0,-6.4l0,-27.6l-4,0l0,-32l-7,0l0,-13l-4,0l0,13l-8,0l0,32l-4,0l0,27.6l0,6.4l-4,0l0,120l37,0l0,-120l-6,0zm-12,41l0,12l-3,0l0,-12l3,0zm6,12l-2,0l0,-12l2,0l0,12zm0,5l0,13l-2,0l0,-13l2,0zm-9,0l3,0l0,13l-3,0l0,-13zm-3,-5l-3,0l0,-12l3,0l0,12zm-3,5l3,0l0,13l-3,0l0,-13zm-6,38l0,-12.8l0,-3.2l2,0l0,16l-2,0zm6,0l0,-16l3,0l0,16l-3,0zm6,0l0,-16l3,0l0,16l-3,0zm7,0l0,-16l2,0l0,16l-2,0zm5,0l0,-16l3,0l0,16l-3,0z" class="st11"/>
      <polygon id="svg_117" points="455,468 453,468 453,471.2 453,484 455,484    " class="st2"/>
      <rect id="svg_118" height="16" width="3" class="st2" y="468" x="459"/>
      <rect id="svg_119" height="16" width="3" class="st2" y="468" x="465"/>
      <rect id="svg_120" height="16" width="2" class="st2" y="468" x="472"/>
      <rect id="svg_121" height="16" width="3" class="st2" y="468" x="477"/>
      <rect id="svg_122" height="13" width="3" class="st2" y="446" x="459"/>
      <rect id="svg_123" height="13" width="3" class="st2" y="446" x="465"/>
      <rect id="svg_124" height="13" width="2" class="st2" y="446" x="472"/>
      <rect id="svg_125" height="12" width="3" class="st2" y="429" x="459"/>
      <rect id="svg_126" height="12" width="3" class="st2" y="429" x="465"/>
      <rect id="svg_127" height="12" width="2" class="st2" y="429" x="472"/>
      <rect id="svg_128" height="12" width="3" class="st2" y="413" x="459"/>
      <rect id="svg_129" height="12" width="3" class="st2" y="413" x="465"/>
      <rect id="svg_130" height="12" width="2" class="st2" y="413" x="472"/>
      <rect id="svg_131" height="13" width="3" class="st2" y="396" x="459"/>
      <rect id="svg_132" height="13" width="3" class="st2" y="396" x="465"/>
      <rect id="svg_133" height="13" width="2" class="st2" y="396" x="472"/>
      <rect id="svg_134" height="12" width="4" class="st2" y="375" x="460"/>
      <rect id="svg_135" height="12" width="3" class="st2" y="375" x="471"/>
      <rect id="svg_136" height="13" width="4" class="st2" y="359" x="460"/>
      <rect id="svg_137" height="13" width="3" class="st2" y="359" x="471"/>
      <rect id="svg_138" height="12" width="2" class="st2" y="339" x="466"/>
      <rect id="svg_139" height="12" width="3" class="st2" y="339" x="461"/>
      <rect id="svg_140" height="11" width="2" class="st2" y="325" x="466"/>
      <rect id="svg_141" height="12" width="2" class="st2" y="339" x="471"/>
     </g>
     <g id="svg_142">
      <path id="svg_143" d="m559.5,508c0,0 0,-33.7 0,-60.3s-35.6,-44.2 -35.6,-44.2l0,104.5l35.6,0z" class="st11"/>
      <rect id="svg_144" height="15" width="4" class="st2" y="469" x="529"/>
      <rect id="svg_145" height="15" width="4" class="st2" y="469" x="536"/>
      <rect id="svg_146" height="15" width="3" class="st2" y="469" x="550"/>
      <rect id="svg_147" height="13" width="4" class="st2" y="450" x="529"/>
      <rect id="svg_148" height="13" width="4" class="st2" y="450" x="543"/>
      <rect id="svg_149" height="13" width="3" class="st2" y="450" x="550"/>
      <rect id="svg_150" height="15" width="4" class="st2" y="428" x="529"/>
      <rect id="svg_151" height="15" width="4" class="st2" y="428" x="536"/>
     </g>
     <path id="svg_152" d="m584.2,507l-5.5,-44.3l2.3,-32.1l0.3,-4l-0.3,4c2.6,-1.1 4.3,-3.1 4.3,-5.3c0,-3.2 -2.3,-5.9 -8.3,-6.3l0,-22l-3,0l0,21.9c-4,0.3 -8.2,3 -8.2,6.3c0,2.2 1.9,4.2 4.6,5.3l2.4,32l-5.5,44.5l-1.9,1l10,0l0.8,0l10,0l-2,-1z" class="st11"/>
    </g>
   </g>
   <path id="svg_153" d="m565.1,533.3c9.7,-7.8 18.7,-16.2 27.2,-25.3l-373.3,0c9.2,10 19.3,19.2 30,27.6c24.1,2.8 171.1,18.5 316.1,-2.3z" class="st1"/>
  </g>
 </g>
</svg>